# xmcd
#
# Track frame offsets: 
#        150
#        3608
#        24050
#        37795
#        53049
#        57594
#        73613
#        92450
#        114302
#        119592
#        143798
#        160179
#        164791
#        179667
#
# Disc length: 2749 seconds
#
# Revision: 0
# Processed by: cddbd v1.5.2PL0 Copyright (c) Steve Scherf et al.
# Submitted via: ExactAudioCopy v0.99pb4
#
DISCID=b90abb0e
DTITLE=Lisa Mack - Dreams To Realities
DYEAR=2005
DGENRE=R&B
TTITLE0=My Songs: Vocal Intro
TTITLE1=Is It Love?
TTITLE2=Party Of Life
TTITLE3=Revelation
TTITLE4=My Dream: Spoken Interlude
TTITLE5=Dreams To Realities
TTITLE6=Never Go Away
TTITLE7=Not Just A Part Of Me
TTITLE8=Blue: Vocal Interlude
TTITLE9=Gotta Get Your Love Back (Original Recipe)
TTITLE10=All Right
TTITLE11=Father God: Vocal Interlude
TTITLE12=Babies
TTITLE13=Is It Love? (Featuring Mullyman)
EXTD=
EXTT0=
EXTT1=
EXTT2=
EXTT3=
EXTT4=
EXTT5=
EXTT6=
EXTT7=
EXTT8=
EXTT9=
EXTT10=
EXTT11=
EXTT12=
EXTT13=
PLAYORDER=
